<?xml version="1.0" encoding="utf-8"?>
<svg version="1.1" xmlns:xlink="http://www.w3.org/1999/xlink" width="24px" height="20px" xmlns="http://www.w3.org/2000/svg">
  <g transform="matrix(1 0 0 1 -781 -2193 )">
    <path d="M 10.269230769230768 0.7954545454545459  C 10.807692307692307 1.3257575757575757  11.076923076923077 1.969696969696968  11 2.727272727272727  L 11 12.727272727272727  C 11.076923076923077 13.712121212121211  10.882211538461538 14.651988636363637  10.492788461538462 15.546875  C 10.103365384615385 16.441761363636363  9.576923076923077 17.215909090909093  8.913461538461538 17.86931818181818  C 8.25 18.522727272727273  7.4639423076923075 19.04119318181818  6.555288461538462 19.424715909090907  C 5.646634615384616 19.808238636363637  4.692307692307693 20  3.6923076923076925 20  L 2.769230769230769 20  C 2.5192307692307696 20  2.3028846153846154 19.910037878787882  2.120192307692308 19.730113636363637  C 1.9375 19.55018939393939  1.8461538461538463 19.33712121212121  1.8461538461538463 19.090909090909093  L 1.8461538461538463 17.272727272727273  C 1.8461538461538463 17.026515151515152  1.9375 16.81344696969697  2.120192307692308 16.633522727272727  C 2.3028846153846154 16.453598484848484  2.5192307692307696 16.363636363636363  2.769230769230769 16.363636363636363  L 3.6923076923076925 16.363636363636363  C 4.711538461538462 16.363636363636363  5.581730769230769 16.008522727272727  6.302884615384615 15.298295454545453  C 7.024038461538462 14.588068181818183  7.384615384615385 13.731060606060606  7.384615384615385 12.727272727272727  L 7.384615384615385 12.272727272727273  C 7.384615384615385 11.893939393939394  7.250000000000001 11.571969696969697  6.980769230769232 11.306818181818183  C 6.711538461538462 11.041666666666664  6.384615384615386 10.909090909090908  6 10.909090909090908  L 2.769230769230769 10.909090909090908  C 2 10.909090909090908  1.3461538461538463 10.643939393939394  0.8076923076923077 10.113636363636363  C 0.26923076923076916 9.583333333333332  0 8.939393939393938  0 8.181818181818182  L 0 2.727272727272727  C 0 1.969696969696968  0.26923076923076916 1.3257575757575757  0.8076923076923077 0.7954545454545459  C 1.3461538461538463 0.2651515151515138  2 0  2.769230769230769 0  L 8.307692307692307 0  C 9.076923076923078 0  9.730769230769232 0.2651515151515138  10.269230769230768 0.7954545454545459  Z M 23.192307692307693 0.7954545454545459  C 23.730769230769234 1.3257575757575757  24 1.969696969696968  24 2.727272727272727  L 24 12.727272727272727  C 24 13.712121212121211  23.805288461538463 14.651988636363637  23.415865384615387 15.546875  C 23.026442307692307 16.441761363636363  22.5 17.215909090909093  21.836538461538463 17.86931818181818  C 21.173076923076923 18.522727272727273  20.38701923076923 19.04119318181818  19.478365384615387 19.424715909090907  C 18.569711538461537 19.808238636363637  17.615384615384617 20  16.615384615384613 20  L 15.692307692307693 20  C 15.442307692307693 20  15.225961538461538 19.910037878787882  15.04326923076923 19.730113636363637  C 14.860576923076923 19.55018939393939  14.76923076923077 19.33712121212121  14.76923076923077 19.090909090909093  L 14.76923076923077 17.272727272727273  C 14.76923076923077 17.026515151515152  14.860576923076923 16.81344696969697  15.04326923076923 16.633522727272727  C 15.225961538461538 16.453598484848484  15.442307692307693 16.363636363636363  15.692307692307693 16.363636363636363  L 16.615384615384613 16.363636363636363  C 17.634615384615387 16.363636363636363  18.504807692307693 16.008522727272727  19.225961538461537 15.298295454545453  C 19.947115384615387 14.588068181818183  20.307692307692307 13.731060606060606  20.307692307692307 12.727272727272727  L 20.307692307692307 12.272727272727273  C 20.307692307692307 11.893939393939394  20.173076923076923 11.571969696969697  19.903846153846153 11.306818181818183  C 19.634615384615387 11.041666666666664  19.307692307692307 10.909090909090908  18.923076923076923 10.909090909090908  L 15.692307692307693 10.909090909090908  C 14.923076923076923 10.909090909090908  14.269230769230772 10.643939393939394  13.73076923076923 10.113636363636363  C 13.192307692307693 9.583333333333332  12.923076923076923 8.939393939393938  12.923076923076923 8.181818181818182  L 12.923076923076923 2.727272727272727  C 12.923076923076923 1.969696969696968  13.192307692307693 1.3257575757575757  13.73076923076923 0.7954545454545459  C 14.269230769230772 0.2651515151515138  14.923076923076923 0  15.692307692307693 0  L 21.23076923076923 0  C 22 0  22.653846153846157 0.2651515151515138  23.192307692307693 0.7954545454545459  Z " fill-rule="nonzero" fill="#000000" stroke="none" transform="matrix(1 0 0 1 781 2193 )" />
  </g>
</svg>