<?xml version="1.0" encoding="utf-8"?>
<svg version="1.1" xmlns:xlink="http://www.w3.org/1999/xlink" width="24px" height="20px" xmlns="http://www.w3.org/2000/svg">
  <g transform="matrix(1 0 0 1 -698 -2028 )">
    <path d="M 10.269230769230768 9.886363636363635  C 10.807692307692307 10.416666666666664  11.076923076923077 11.060606060606059  11.076923076923077 11.818181818181817  L 11.076923076923077 17.272727272727273  C 11.076923076923077 18.03030303030303  10.807692307692307 18.674242424242426  10.269230769230768 19.204545454545453  C 9.730769230769232 19.734848484848484  9.076923076923078 20  8.307692307692307 20  L 2.769230769230769 20  C 2 20  1.3461538461538463 19.734848484848484  0.8076923076923077 19.204545454545453  C 0.26923076923076916 18.674242424242426  0 18.03030303030303  0 17.272727272727273  L 0 7.272727272727273  C 0 6.287878787878787  0.1947115384615385 5.348011363636365  0.5841346153846154 4.453125  C 0.9735576923076923 3.5582386363636354  1.5 2.7840909090909083  2.1634615384615383 2.130681818181819  C 2.826923076923077 1.477272727272727  3.612980769230769 0.9588068181818188  4.521634615384616 0.5752840909090917  C 5.430288461538463 0.19176136363636465  6.384615384615386 0  7.384615384615385 0  L 8.307692307692307 0  C 8.557692307692308 0  8.774038461538462 0.08996212121211933  8.956730769230768 0.26988636363636465  C 9.139423076923078 0.4498106060606033  9.230769230769232 0.6628787878787867  9.230769230769232 0.9090909090909083  L 9.230769230769232 2.727272727272727  C 9.230769230769232 2.9734848484848464  9.139423076923078 3.18655303030303  8.956730769230768 3.366477272727273  C 8.774038461538462 3.546401515151514  8.557692307692308 3.6363636363636354  8.307692307692307 3.6363636363636354  L 7.384615384615385 3.6363636363636354  C 6.365384615384615 3.6363636363636354  5.4951923076923075 3.991477272727273  4.774038461538462 4.701704545454546  C 4.052884615384616 5.411931818181818  3.6923076923076925 6.268939393939393  3.6923076923076925 7.272727272727273  L 3.6923076923076925 7.727272727272727  C 3.6923076923076925 8.106060606060606  3.8269230769230775 8.428030303030303  4.096153846153847 8.693181818181818  C 4.365384615384616 8.958333333333336  4.692307692307693 9.090909090909092  5.076923076923077 9.090909090909092  L 8.307692307692307 9.090909090909092  C 9.076923076923078 9.090909090909092  9.730769230769232 9.356060606060607  10.269230769230768 9.886363636363635  Z M 23.192307692307693 9.886363636363635  C 23.730769230769234 10.416666666666664  24 11.060606060606059  24 11.818181818181817  L 24 17.272727272727273  C 24 18.03030303030303  23.730769230769234 18.674242424242426  23.192307692307693 19.204545454545453  C 22.653846153846157 19.734848484848484  22 20  21.23076923076923 20  L 15.692307692307693 20  C 14.923076923076923 20  14.269230769230772 19.734848484848484  13.73076923076923 19.204545454545453  C 13.192307692307693 18.674242424242426  12.923076923076923 18.03030303030303  13 17.272727272727273  L 13 7.272727272727273  C 12.923076923076923 6.287878787878787  13.117788461538463 5.348011363636365  13.507211538461537 4.453125  C 13.896634615384615 3.5582386363636354  14.423076923076923 2.7840909090909083  15.086538461538463 2.130681818181819  C 15.75 1.477272727272727  16.536057692307693 0.9588068181818188  17.444711538461537 0.5752840909090917  C 18.353365384615387 0.19176136363636465  19.307692307692307 0  20.307692307692307 0  L 21.23076923076923 0  C 21.480769230769234 0  21.697115384615387 0.08996212121211933  21.879807692307693 0.26988636363636465  C 22.0625 0.4498106060606033  22.153846153846153 0.6628787878787867  22.153846153846153 0.9090909090909083  L 22.153846153846153 2.727272727272727  C 22.153846153846153 2.9734848484848464  22.0625 3.18655303030303  21.879807692307693 3.366477272727273  C 21.697115384615387 3.546401515151514  21.480769230769234 3.6363636363636354  21.23076923076923 3.6363636363636354  L 20.307692307692307 3.6363636363636354  C 19.28846153846154 3.6363636363636354  18.41826923076923 3.991477272727273  17.697115384615387 4.701704545454546  C 16.975961538461537 5.411931818181818  16.615384615384613 6.268939393939393  16.615384615384613 7.272727272727273  L 16.615384615384613 7.727272727272727  C 16.615384615384613 8.106060606060606  16.75 8.428030303030303  17.01923076923077 8.693181818181818  C 17.28846153846154 8.958333333333336  17.615384615384617 9.090909090909092  18 9.090909090909092  L 21.23076923076923 9.090909090909092  C 22 9.090909090909092  22.653846153846157 9.356060606060607  23.192307692307693 9.886363636363635  Z " fill-rule="nonzero" fill="#000000" stroke="none" transform="matrix(1 0 0 1 698 2028 )" />
  </g>
</svg>